# xmcd
#
# Track frame offsets:
#  150
#  11622
#  24563
#  36634
#  47408
#  58266
#  71250
#  84383
#  97232
#  107646
#  119024
#  133035
#  146193
#  158824
#  171920
#  183660
#  196286
#  209752
#  221090
#  234294
#  244935
#
# Disc length: 3411 seconds
#
# Revision: 0
# Processed by: cddbd v1.5.1PL2 Copyright (c) Steve Scherf et al.
# Submitted via: Collectorz.com_Music_Collector 6.9
#
DISCID=420d5115
DTITLE=Bob Wills - Papas Jumpin CD 3
DYEAR=1963
DGENRE=Country
TTITLE0=Santa's On His Way
TTITLE1=02 - Mean Woman With Green Eyes
TTITLE2=My Little Rock Candy Baby
TTITLE3=Anything
TTITLE4=Jole Blond Likes The Boogie
TTITLE5=Pastime Blues
TTITLE6=Faded Love
TTITLE7=Awake But Dreaming
TTITLE8=I Betcha My Heart, I Love You
TTITLE9=I Laugh When I Think How I Cried Over You
TTITLE10=I'll Be Lucky Some Day
TTITLE11=Rock-A-Baby-Blues
TTITLE12=I'm Dottin Each I With A Teardrop
TTITLE13=Tater Pie
TTITLE14=The End Of The Line
TTITLE15=I Didn't Realize
TTITLE16=Little Girl, Little Girl
TTITLE17=I'm Tired of Living This Lie
TTITLE18=Pliney Jane
TTITLE19=Twinkle Star
TTITLE20=Brown Skin Gal
EXTD=
EXTT0=
EXTT1=
EXTT2=
EXTT3=
EXTT4=
EXTT5=
EXTT6=
EXTT7=
EXTT8=
EXTT9=
EXTT10=
EXTT11=
EXTT12=
EXTT13=
EXTT14=
EXTT15=
EXTT16=
EXTT17=
EXTT18=
EXTT19=
EXTT20=
PLAYORDER=
